<mxfile host="app.diagrams.net" modified="2021-01-12T09:34:46.845Z" agent="5.0 (Windows)" etag="uYh3-tZJiU-X_zatqmmn" version="14.1.8" type="github">
  <diagram id="mqCRt8jWshRflJlXmG6v" name="Page-1">
    <mxGraphModel dx="1038" dy="547" grid="1" gridSize="10" guides="1" tooltips="1" connect="1" arrows="1" fold="1" page="1" pageScale="1" pageWidth="1169" pageHeight="827" math="0" shadow="0">
      <root>
        <mxCell id="0" />
        <mxCell id="1" parent="0" />
        <mxCell id="U_bItnstda_1CP7JH8OQ-1" value="MANAGEMENT OF MOTOR VEHICLE FUEL CARDS PROCESS" style="swimlane;" vertex="1" parent="1">
          <mxGeometry x="10" y="10" width="760" height="710" as="geometry" />
        </mxCell>
      </root>
    </mxGraphModel>
  </diagram>
</mxfile>
